<svg id="a5cc5aa1-dc7c-4493-85d5-a6c45851b490" data-name="Capa 1" xmlns="http://www.w3.org/2000/svg" viewBox="0 0 241.39 243.07">
  <defs>
    <style>
      .ad412ccf-ab87-4bf6-8ecf-fa8b6b8da843 {
        fill: #573d5a;
      }

      .aa229276-ec7a-4189-a68a-fabf69efddb1 {
        fill: #435d3c;
      }

      .b917adca-4dd2-4555-99c9-eb695990b841 {
        fill: #fefefe;
      }
    </style>
  </defs>
  <title>logo</title>
  <g>
    <path class="ad412ccf-ab87-4bf6-8ecf-fa8b6b8da843" d="M67,80.08c4.25.58,6.36,4,8.58,6.94A70.78,70.78,0,0,0,89,100.62c-3.74,10.6-13.9,15.41-21.18,22.67-10,10-21.16,18.74-31.18,28.73-7.41,7.39-14.9,7-23-1s-8.63-15.75-1-22.89C29,112.88,45.61,98,62.14,83A28.75,28.75,0,0,1,67,80.08Z" transform="translate(-7.3 -6.46)"/>
    <path class="aa229276-ec7a-4189-a68a-fabf69efddb1" d="M131.17,119q23.07,24.7,46.15,49.38c6.32,6.75,7.83,14.24,3.7,19.68-3.93,5.18-9.68,4.33-15.12,4.48a70.72,70.72,0,0,1-13.46-13.59c-2.22-3-4.33-6.36-8.58-6.94,0-3.85-3-5.27-5.59-7.06-5.66-9.23-13.86-16.09-21.65-23.34-.45-2.62-1.28-4.85-4.62-4.52l0,.21,1.54-.29-1.38-1.1a185.93,185.93,0,0,0-20.19-20.48c-1-4-3.35-6.63-7.52-7.39l-.05.21,1.54-.3-1.38-1.09a42.55,42.55,0,0,1-4.06-4.9c-4.54-7.48-13-11.76-16.47-20.07,9.82-9,19.3-18.45,29.61-26.88C99,50.61,103.9,45.81,109,41.21c12.75-11.45,26.19-22.15,37.88-34.75h2.9c1.14,2.06,2,4.19,3.72,6C169.23,29,185,45.55,200.47,62.29c15.31,16.52,30.39,33.24,45.55,49.89,3.51,3.85,3.56,12.85.18,16.48-4.42,4.75-12.33,6-16.72,1.55-10.84-10.9-21.43-22.07-31.6-33.59C193.41,91.56,188.43,87,184,82c-1.9-2.12-4.57-3.61-5.47-6.56-4.61,3.56-4.6,3.55-1.09,7.28q22.71,24.15,45.4,48.33c6.06,6.46,5.65,13.58-1,19.13-5.95,4.95-13.24,3.63-18.29-3.09-5.62-7.5-13.1-13.27-19-20.62-7.81-9.71-17-18.35-25.62-27.37-1.15-1.2-2.21-3.81-4.61-1.85-2.77,2.28.52,3,1.35,4.29,7.13,10.63,17.56,18.25,25.55,28.18,6.59,8.19,14.87,15,21.54,23.24,3.58,4.42,3.26,11.35-1.21,16.12-4.86,5.19-10.93,6.16-15.73,1.69-12.29-11.48-23.13-24.36-34.55-36.7-5.62-6.08-10.51-13-18.16-16.94C131.3,116.66,130.7,117.28,131.17,119Z" transform="translate(-7.3 -6.46)"/>
    <path class="ad412ccf-ab87-4bf6-8ecf-fa8b6b8da843" d="M144,172.31c4.26.59,6.36,3.95,8.59,6.95a71,71,0,0,0,13.46,13.59c-3.74,10.6-13.9,15.41-21.18,22.67-10,10-21.17,18.74-31.19,28.74-7.4,7.38-14.9,7-22.94-1s-8.63-15.75-1-22.89c16.31-15.21,32.89-30.12,49.42-45.09A29.34,29.34,0,0,1,144,172.31Z" transform="translate(-7.3 -6.46)"/>
    <path class="ad412ccf-ab87-4bf6-8ecf-fa8b6b8da843" d="M116.62,141.59c7.79,7.25,16,14.11,21.65,23.34-.07,4.24-4.08,4.81-6.4,7-6.63,6.27-13.05,12.74-20,18.69-8.95,7.64-17.24,16.07-25.81,24.16s-21.73.69-26.39-9.94,3.52-15.5,9.42-20.79C79.78,174.44,90.59,165,100.94,155,105.87,150.18,111.38,146,116.62,141.59Z" transform="translate(-7.3 -6.46)"/>
    <path class="ad412ccf-ab87-4bf6-8ecf-fa8b6b8da843" d="M91.92,115.41a185.93,185.93,0,0,1,20.19,20.48,5.44,5.44,0,0,0-.16,1.39l0-.21L74.81,170.79c-5.31,4.82-10.52,9.76-16,14.41-5.86,5-12.6,3.83-18.72-2.92-5.19-5.73-5.16-12.3.15-17.62C56.5,148.4,73.84,133.32,91,118,91.56,117.45,91.61,116.29,91.92,115.41Z" transform="translate(-7.3 -6.46)"/>
    <path class="b917adca-4dd2-4555-99c9-eb695990b841" d="M84.35,108.23a5,5,0,0,1,.16-1.39l1.38,1.09Z" transform="translate(-7.3 -6.46)"/>
    <path class="b917adca-4dd2-4555-99c9-eb695990b841" d="M131.17,119c-.47-1.7.13-2.32,1.84-1.84Z" transform="translate(-7.3 -6.46)"/>
    <path class="b917adca-4dd2-4555-99c9-eb695990b841" d="M112,137.28a5.44,5.44,0,0,1,.16-1.39l1.38,1.1Z" transform="translate(-7.3 -6.46)"/>
  </g>
</svg>
