<svg id="be8d0f3b-6387-4844-812b-f8df1bb4508d" data-name="Capa 1" xmlns="http://www.w3.org/2000/svg" viewBox="0 0 165 94">
  <defs>
    <style>
      .b23dfa9a-a26e-4034-8b1d-c7ff32d5b529 {
        fill: #573d5a;
      }

      .a75b8736-969b-4f3b-9fdf-d0e11549bbb3, .bac75890-8037-44e2-91bf-4509a2c4304b, .f56dac41-3db3-4bb9-9a87-25ff938e48e8, .fabcefdf-a285-48c5-9d0b-f7cd5c243b4f {
        fill: #435d3c;
      }

      .bac75890-8037-44e2-91bf-4509a2c4304b, .e8d28b43-176c-4be3-8afd-854762334308, .f56dac41-3db3-4bb9-9a87-25ff938e48e8, .fabcefdf-a285-48c5-9d0b-f7cd5c243b4f {
        isolation: isolate;
      }

      .bac75890-8037-44e2-91bf-4509a2c4304b, .f56dac41-3db3-4bb9-9a87-25ff938e48e8, .fabcefdf-a285-48c5-9d0b-f7cd5c243b4f {
        font-size: 31.04px;
        font-family: Arial-BoldMT, Arial;
        font-weight: 700;
      }

      .bac75890-8037-44e2-91bf-4509a2c4304b {
        letter-spacing: -0.02em;
      }

      .fabcefdf-a285-48c5-9d0b-f7cd5c243b4f {
        letter-spacing: -0.03em;
      }
    </style>
  </defs>
  <title>newlogo</title>
  <g>
    <g>
      <polygon class="b23dfa9a-a26e-4034-8b1d-c7ff32d5b529" points="38.22 32.3 9.23 55.6 2.61 47.16 31.6 23.86 38.22 32.3"/>
      <polygon class="b23dfa9a-a26e-4034-8b1d-c7ff32d5b529" points="47.46 44.07 18.47 67.37 11.85 58.93 40.83 35.63 47.46 44.07"/>
      <polygon class="b23dfa9a-a26e-4034-8b1d-c7ff32d5b529" points="56.7 55.85 27.7 79.15 21.08 70.71 50.07 47.41 56.7 55.85"/>
      <polygon class="b23dfa9a-a26e-4034-8b1d-c7ff32d5b529" points="65.93 67.62 36.94 90.92 30.32 82.48 59.31 59.18 65.93 67.62"/>
    </g>
    <polygon class="a75b8736-969b-4f3b-9fdf-d0e11549bbb3" points="84.86 52.13 91.98 46.31 72.59 22 66.55 14.43 57.27 2.79 24.39 29.64 33.68 41.29 39.71 48.85 59.1 73.17 66.22 67.35 46.83 43.04 48.3 41.84 67.69 66.15 74.8 60.34 55.41 36.02 56.88 34.83 76.27 59.14 83.39 53.33 64 29.01 65.47 27.81 84.86 52.13"/>
    <g class="e8d28b43-176c-4be3-8afd-854762334308">
      <text class="bac75890-8037-44e2-91bf-4509a2c4304b" transform="translate(72.55 85.32) scale(0.99 1)">P</text>
      <text class="fabcefdf-a285-48c5-9d0b-f7cd5c243b4f" transform="translate(94.73 85.32) scale(0.99 1)">Y</text>
      <text class="f56dac41-3db3-4bb9-9a87-25ff938e48e8" transform="translate(115.17 85.32) scale(0.99 1)">FIN</text>
    </g>
  </g>
</svg>
